:SAMPLES-PER-SECOND 30
:FULLY-SPECIFIED
:DEGREES
470
root  -5.82577 40.6828 73.5192 0.954548 -5.22724 0.512511
RightUpLeg  -0.789459 -0.179815 1.78873
RightLeg  -0.215021 -3.53978 1.77103
RightFoot  -0.693258 0.322626 -3.01929
RightToes  5.82077e-011 -3.18055e-015 -2.98177e-016
Spine  -1.17017 1.31341 -1.328
Spine1  7.36345 0.654646 3.36375
HEad  -18.8682 6.2998 -0.727479
LeftShoulder1  -3.88251e-019 9.70628e-020 -3.87848e-018
LeftArm  -26.9996 54.4343 -68.349
LeftForeArm  -8.11651 -10.8201 -2.19053
LeftHand  -0.281607 -0.829722 5.71406
RightShoulder  7.8518 10.7367 36.6909
RightArm  15.4497 -38.7198 11.7883
RightForeArm  12.3888 18.1728 -7.99645
RightHand  -1.0441 4.5366 -12.1387
LeftUpLeg  -2.37337 -4.17127 -4.06729
LeftLeg  3.19969 9.97983 3.90917
LeftFoot  -0.828876 -0.21529 1.94777
LeftToes  9.37148e-011 4.50685e-012 -4.11107e-011
471
root  -5.83973 40.681 73.5079 0.777618 -5.11123 0.538598
RightUpLeg  -0.650585 -0.270432 1.74867
RightLeg  -0.0905494 -3.5704 1.78074
RightFoot  -0.766555 0.315885 -2.95217
RightToes  5.82077e-011 -3.18055e-015 -2.98177e-016
Spine  -1.21792 1.33633 -1.27416
Spine1  7.65266 0.716557 3.18321
HEad  -18.6823 6.20548 -0.774751
LeftShoulder1  -3.88251e-019 9.70628e-020 -3.87848e-018
LeftArm  -26.9464 54.2043 -68.371
LeftForeArm  -8.11281 -11.4351 -2.12058
LeftHand  -0.22121 -0.0767413 5.13738
RightShoulder  7.8389 10.7317 36.6383
RightArm  15.6954 -38.8466 11.5877
RightForeArm  12.5153 18.1464 -7.92488
RightHand  -1.0663 4.56532 -12.3568
LeftUpLeg  -2.19955 -4.18002 -4.08342
LeftLeg  3.16519 9.84489 3.91212
LeftFoot  -0.811456 -0.211456 1.91643
LeftToes  9.37148e-011 4.50685e-012 -4.11107e-011
472
root  -5.84901 40.6775 73.4788 0.65596 -5.08764 0.535953
RightUpLeg  -0.628794 -0.28889 1.76069
RightLeg  0.0538556 -3.57824 1.74406
RightFoot  -0.840798 0.318916 -2.98607
RightToes  5.82077e-011 -3.18055e-015 -2.98177e-016
Spine  -0.793699 1.34785 -1.18493
Spine1  7.19105 0.79022 2.94426
HEad  -18.3572 6.17605 -0.878386
LeftShoulder1  -3.88251e-019 9.70628e-020 -3.87848e-018
LeftArm  -26.9298 54.2165 -68.3029
LeftForeArm  -7.8986 -11.8469 -2.08942
LeftHand  -0.250762 -0.580338 5.30098
RightShoulder  7.87593 10.7496 36.7816
RightArm  15.5622 -38.9599 11.2037
RightForeArm  13.1299 18.0028 -7.80183
RightHand  -1.12134 4.92301 -12.552
LeftUpLeg  -2.13295 -4.15243 -4.0602
LeftLeg  3.19623 9.76317 3.92098
LeftFoot  -0.809682 -0.210964 1.92154
LeftToes  9.37148e-011 4.50685e-012 -4.11107e-011
473
root  -5.85817 40.6722 73.4418 0.618522 -5.06716 0.524077
RightUpLeg  -0.737108 -0.268289 1.80005
RightLeg  0.230964 -3.62887 1.67421
RightFoot  -0.89785 0.321641 -3.0253
RightToes  5.82077e-011 -3.18055e-015 -2.98177e-016
Spine  -0.485064 1.306 -1.15457
Spine1  6.76313 0.801071 2.74308
HEad  -18.1365 6.13905 -0.995252
LeftShoulder1  -3.88251e-019 9.70628e-020 -3.87848e-018
LeftArm  -26.9645 54.338 -68.2774
LeftForeArm  -7.63331 -12.2798 -2.03566
LeftHand  -0.360882 -2.05546 6.11028
RightShoulder  7.953 10.7808 37.092
RightArm  15.4081 -38.9682 10.8243
RightForeArm  13.4343 17.918 -7.75751
RightHand  -1.14263 5.10272 -12.575
LeftUpLeg  -2.20263 -4.09189 -4.00274
LeftLeg  3.29931 9.6535 3.91635
LeftFoot  -0.83742 -0.212837 1.95228
LeftToes  9.37148e-011 4.50685e-012 -4.11107e-011
474
root  -5.86798 40.6673 73.4143 0.584908 -4.98608 0.535714
RightUpLeg  -0.820694 -0.284556 1.80616
RightLeg  0.395241 -3.71724 1.61998
RightFoot  -0.940315 0.316905 -2.99198
RightToes  5.82077e-011 -3.18055e-015 -2.98177e-016
Spine  -0.51301 1.18976 -1.31419
Spine1  6.78064 0.689212 2.74326
HEad  -18.1547 6.11362 -0.961644
LeftShoulder1  -3.88251e-019 9.70628e-020 -3.87848e-018
LeftArm  -27.0707 54.422 -68.3695
LeftForeArm  -7.59194 -12.7804 -1.94185
LeftHand  -0.431045 -2.84794 6.57945
RightShoulder  8.03322 10.81 37.4207
RightArm  15.774 -38.9359 10.5319
RightForeArm  12.8722 18.0743 -7.90401
RightHand  -1.13441 4.99614 -12.6095
LeftUpLeg  -2.24525 -4.06809 -3.97646
LeftLeg  3.36023 9.50954 3.9029
LeftFoot  -0.861802 -0.213565 1.97121
LeftToes  9.37148e-011 4.50685e-012 -4.11107e-011
475
root  -5.87212 40.6621 73.391 0.520982 -4.94648 0.563341
RightUpLeg  -0.857319 -0.328122 1.7817
RightLeg  0.541036 -3.74115 1.57675
RightFoot  -1.00058 0.310332 -2.94187
RightToes  5.82077e-011 -3.18055e-015 -2.98177e-016
Spine  -0.614958 1.06991 -1.62288
Spine1  6.92744 0.525532 2.96724
HEad  -18.294 6.11891 -0.824138
LeftShoulder1  -3.88251e-019 9.70628e-020 -3.87848e-018
LeftArm  -27.1822 54.418 -68.5256
LeftForeArm  -7.59499 -13.1302 -1.89767
LeftHand  -0.414027 -2.64868 6.47773
RightShoulder  8.0747 10.8233 37.5941
RightArm  16.1242 -38.924 10.4394
RightForeArm  12.1962 18.2246 -8.02355
RightHand  -1.13019 4.89525 -12.6818
LeftUpLeg  -2.23481 -4.07298 -3.98228
LeftLeg  3.41404 9.42219 3.898
LeftFoot  -0.905293 -0.208796 1.93315
LeftToes  9.37148e-011 4.50685e-012 -4.11107e-011
476
root  -5.86472 40.6554 73.3571 0.479301 -5.06152 0.578665
RightUpLeg  -0.972431 -0.342295 1.76615
RightLeg  0.720137 -3.62901 1.50939
RightFoot  -1.09076 0.308778 -2.94483
RightToes  5.82077e-011 -3.18055e-015 -2.98177e-016
Spine  -0.597407 1.03175 -1.84865
Spine1  6.87434 0.447031 3.18303
HEad  -18.43 6.11904 -0.824466
LeftShoulder1  -3.88251e-019 9.70628e-020 -3.87848e-018
LeftArm  -27.2394 54.3326 -68.6898
LeftForeArm  -7.25007 -13.1814 -1.95072
LeftHand  -0.427204 -2.791 6.55769
RightShoulder  8.06388 10.8154 37.5588
RightArm  15.4978 -38.965 10.6685
RightForeArm  12.4238 18.0519 -7.90087
RightHand  -1.12478 4.9419 -12.5674
LeftUpLeg  -2.2876 -4.06303 -3.98492
LeftLeg  3.55432 9.48124 3.92214
LeftFoot  -0.991572 -0.198518 1.84811
LeftToes  9.37148e-011 4.50685e-012 -4.11107e-011
